<svg width="440" height="100" viewBox="0 0 440 100" fill="none" xmlns="http://www.w3.org/2000/svg">
<path fill-rule="evenodd" clip-rule="evenodd" d="M44.8909 0C61.1128 2.29472e-05 73.2337 3.92263 80.5686 7.23145C86.9194 10.0968 90.6376 16.8875 89.6116 23.7578C88.552 30.8459 86.444 42.506 82.4065 57.8682C78.7841 71.651 70.0915 81.8445 62.2268 88.6348C54.361 95.4258 47.2424 98.8826 46.6067 99.1846L45.4416 99.7383L44.8909 100L43.175 99.1836C42.5428 98.8833 35.4212 95.4271 27.553 88.6338C19.6884 81.8436 10.9975 71.6496 7.37523 57.8672C7.0151 56.4973 6.67282 55.1572 6.343 53.8477C6.82049 53.852 7.30704 53.8054 7.79613 53.7012L11.6174 52.8867C12.5147 52.6953 13.3361 52.3253 14.05 51.8213C14.3801 53.1347 14.7227 54.4797 15.0842 55.8555C17.8256 66.286 24.141 74.4978 30.4534 80.4658C36.2943 85.988 42.0835 89.5368 44.886 91.1016C47.6868 89.5327 53.4822 85.9725 59.3284 80.4434C65.6449 74.4692 71.9612 66.2596 74.6955 55.8555C78.6469 40.8227 80.7016 29.4601 81.7287 22.5889C82.2325 19.2191 80.4036 15.8734 77.2825 14.4648C70.7079 11.4993 59.7272 7.94045 44.8909 7.94043C30.0545 7.94047 19.0738 11.4992 12.4993 14.4648C9.37814 15.8733 7.54925 19.2186 8.05296 22.5889C8.44885 25.2362 8.99885 28.5523 9.74925 32.4863C8.18027 32.8722 6.32227 33.68 4.65062 34.9619C3.92202 35.5207 3.18602 36.2065 2.51878 37.0254C1.42971 31.6152 0.677345 27.1592 0.169172 23.7578C-0.856744 16.8874 2.86113 10.0966 9.21214 7.23145C16.5469 3.9226 28.6686 3.92814e-05 44.8909 0Z" fill="#008200"/>
<path d="M64.7658 58.1163C64.765 58.1188 58.4886 78.4217 44.8908 88.3135C44.8908 88.3135 36.6965 82.8036 29.879 73.9327L64.7658 58.1163Z" fill="#4817CE"/>
<path d="M28.502 72.1155C28.502 72.1155 15.6004 57.2484 22.2255 49.7862C28.051 43.2242 76.098 35.2084 76.098 35.2084C74.7615 45.7944 40.183 66.9669 28.502 72.1155Z" fill="#4817CE"/>
<path d="M41.3596 16.2921C47.5461 16.2921 52.5619 21.2841 52.562 27.4422C52.5618 33.6002 47.546 38.5923 41.3596 38.5923C35.1733 38.5921 30.1584 33.6001 30.1582 27.4422C30.1583 21.2842 35.1733 16.2922 41.3596 16.2921Z" fill="#4817CE"/>
<path fill-rule="evenodd" clip-rule="evenodd" d="M27.3299 33.2903C28.1858 35.3253 29.4753 37.1331 31.0819 38.6018L15.0614 40.5657C14.4734 40.685 14.2536 40.8824 14.1805 40.9632C14.096 41.0568 14.0568 41.1643 14.0458 41.2708C13.8673 43.003 13.8374 45.089 13.8426 46.4231L13.8309 46.7405C13.6988 48.3087 12.5523 49.6229 10.9891 49.9563L7.16979 50.7708C5.05524 51.2211 3.03254 49.732 2.82213 47.6096L2.80749 47.4016C2.75176 46.0768 2.77118 44.1878 3.16198 42.3821C3.65583 40.1016 5.03443 38.4456 6.47838 37.3382C7.90608 36.2433 9.50775 35.5939 10.7303 35.3362L10.8202 35.3167L11.7548 35.2083L27.3299 33.2903ZM73.8661 26.9993C75.6701 26.7322 76.7706 28.1601 77.0048 29.386L77.0399 29.6272L77.0536 29.8645C77.0708 31.0715 76.3538 32.6278 74.6493 32.8811L53.9022 36.0042C55.1885 34.1385 56.0661 31.9715 56.4061 29.6292L73.8612 27.0003L73.8661 26.9993Z" fill="#4817CE"/>
<path d="M417.607 69.8772C424.452 69.8772 427.874 65.2662 427.874 56.0443C427.874 52.0401 426.927 48.7942 425.032 46.3067C423.138 43.7586 420.693 42.4845 417.698 42.4845C414.826 42.4845 412.412 43.6676 410.456 46.0337C408.561 48.3998 407.614 51.494 407.614 55.3163C407.614 65.0235 410.945 69.8772 417.607 69.8772ZM396.338 100V34.021H407.797L407.889 39.4813C410.639 35.0524 414.826 32.8379 420.449 32.8379C423.26 32.8379 425.857 33.3839 428.241 34.476C430.685 35.5681 432.763 37.1455 434.475 39.2083C436.186 41.2711 437.53 43.7889 438.508 46.7617C439.486 49.7346 439.975 53.1018 439.975 56.8634C439.975 60.2609 439.547 63.3854 438.692 66.2369C437.897 69.0278 436.705 71.4546 435.116 73.5174C433.527 75.5802 431.572 77.188 429.249 78.3407C426.988 79.4328 424.391 79.9788 421.457 79.9788C415.895 79.9788 411.434 77.643 408.072 72.9714V100H396.338Z" fill="#4817CE"/>
<path d="M379.837 78.6018V72.3224C376.781 77.2974 372.106 79.7849 365.811 79.7849C363.549 79.7849 361.471 79.3905 359.577 78.6018C357.743 77.8131 356.154 76.6907 354.81 75.2346C353.465 73.7785 352.396 72.0494 351.601 70.0472C350.868 68.0451 350.501 65.8003 350.501 63.3128V33.827H362.419V61.4927C362.419 67.0744 364.955 69.8652 370.028 69.8652C373.083 69.8652 375.375 68.9249 376.903 67.0441C378.492 65.1026 379.287 62.6455 379.287 59.6726V33.827H391.113V78.6018H379.837Z" fill="#4817CE"/>
<path d="M334.098 51.672C334.037 50.0339 333.731 48.6082 333.181 47.3948C332.692 46.1207 332.02 45.0893 331.164 44.3006C330.309 43.4512 329.331 42.8445 328.231 42.4805C327.131 42.0558 326 41.8434 324.839 41.8434C322.455 41.8434 320.377 42.7231 318.605 44.4826C316.894 46.1814 315.916 48.5778 315.671 51.672H334.098ZM315.305 59.1345C315.488 62.532 316.466 65.2319 318.238 67.234C320.072 69.2361 322.455 70.2372 325.389 70.2372C327.344 70.2372 329.056 69.8125 330.522 68.9631C332.05 68.053 333.028 66.8093 333.456 65.2319H345.74C344.335 69.8428 341.89 73.392 338.406 75.8795C334.923 78.367 330.767 79.6107 325.939 79.6107C310.904 79.6107 303.387 71.4809 303.387 55.2212C303.387 51.763 303.876 48.6385 304.854 45.8477C305.831 43.0568 307.237 40.6603 309.071 38.6582C310.965 36.6561 313.257 35.1393 315.946 34.1079C318.635 33.0159 321.722 32.4698 325.205 32.4698C332.173 32.4698 337.429 34.6843 340.973 39.1133C344.579 43.5422 346.382 50.2159 346.382 59.1345H315.305Z" fill="#008200"/>
<path d="M288.177 78.4277V51.308C288.177 48.5778 287.536 46.3634 286.252 44.6646C284.969 42.9658 283.258 42.1164 281.118 42.1164C278.918 42.1164 277.085 43.0265 275.618 44.8466C274.212 46.6667 273.509 48.9419 273.509 51.672V78.4277H261.592V51.49C261.592 49.6699 261.47 48.1835 261.225 47.0307C260.981 45.878 260.553 44.9679 259.942 44.3006C259.392 43.6332 258.658 43.1782 257.742 42.9355C256.825 42.6321 255.725 42.4805 254.441 42.4805C249.613 42.4805 247.199 45.3926 247.199 51.217V78.4277H235.281V33.6529H246.466V40.2053C247.993 37.2325 249.827 35.2 251.966 34.1079C254.105 33.0159 256.672 32.4698 259.667 32.4698C261.195 32.4698 262.539 32.5912 263.7 32.8339C264.923 33.0766 265.992 33.5012 266.909 34.1079C267.887 34.654 268.804 35.382 269.659 36.2921C270.515 37.2021 271.37 38.2942 272.226 39.5683C273.448 37.0808 275.068 35.291 277.085 34.199C279.102 33.0462 281.546 32.4698 284.419 32.4698C286.68 32.4698 288.758 32.8642 290.653 33.6529C292.547 34.381 294.167 35.4427 295.511 36.8381C296.856 38.1729 297.895 39.7503 298.628 41.5704C299.423 43.3905 299.82 45.332 299.82 47.3948V78.4277H288.177Z" fill="#008200"/>
<path d="M218.878 51.672C218.817 50.0339 218.511 48.6082 217.961 47.3948C217.472 46.1207 216.8 45.0893 215.944 44.3006C215.089 43.4512 214.111 42.8445 213.011 42.4805C211.911 42.0558 210.78 41.8434 209.619 41.8434C207.235 41.8434 205.157 42.7231 203.385 44.4826C201.674 46.1814 200.696 48.5778 200.451 51.672H218.878ZM200.085 59.1345C200.268 62.532 201.246 65.2319 203.018 67.234C204.852 69.2361 207.235 70.2372 210.169 70.2372C212.125 70.2372 213.836 69.8125 215.303 68.9631C216.831 68.053 217.808 66.8093 218.236 65.2319H230.521C229.115 69.8428 226.67 73.392 223.187 75.8795C219.703 78.367 215.547 79.6107 210.719 79.6107C195.684 79.6107 188.167 71.4809 188.167 55.2212C188.167 51.763 188.656 48.6385 189.634 45.8477C190.612 43.0568 192.017 40.6603 193.851 38.6582C195.746 36.6561 198.037 35.1393 200.726 34.1079C203.416 33.0159 206.502 32.4698 209.986 32.4698C216.953 32.4698 222.209 34.6843 225.754 39.1133C229.359 43.5422 231.162 50.2159 231.162 59.1345H200.085Z" fill="#4817CE"/>
<path d="M172.772 51.672C172.711 50.0339 172.406 48.6082 171.855 47.3948C171.367 46.1207 170.694 45.0893 169.839 44.3006C168.983 43.4512 168.005 42.8445 166.905 42.4805C165.805 42.0558 164.674 41.8434 163.513 41.8434C161.13 41.8434 159.052 42.7231 157.279 44.4826C155.568 46.1814 154.59 48.5778 154.346 51.672H172.772ZM153.979 59.1345C154.162 62.532 155.14 65.2319 156.913 67.234C158.746 69.2361 161.13 70.2372 164.063 70.2372C166.019 70.2372 167.73 69.8125 169.197 68.9631C170.725 68.053 171.703 66.8093 172.131 65.2319H184.415C183.009 69.8428 180.565 73.392 177.081 75.8795C173.597 78.367 169.441 79.6107 164.613 79.6107C149.579 79.6107 142.061 71.4809 142.061 55.2212C142.061 51.763 142.55 48.6385 143.528 45.8477C144.506 43.0568 145.912 40.6603 147.745 38.6582C149.64 36.6561 151.932 35.1393 154.621 34.1079C157.31 33.0159 160.396 32.4698 163.88 32.4698C170.847 32.4698 176.103 34.6843 179.648 39.1133C183.254 43.5422 185.057 50.2159 185.057 59.1345H153.979Z" fill="#4817CE"/>
<path d="M118.116 78.4277V28.5566H99.7816V18H149.286V28.5566H130.859V78.4277H118.116Z" fill="#4817CE"/>
</svg>
