<svg width="90" height="100" viewBox="0 0 90 100" fill="none" xmlns="http://www.w3.org/2000/svg">
<path fill-rule="evenodd" clip-rule="evenodd" d="M44.8909 0C61.1128 0 73.2337 3.92263 80.5686 7.23145C86.9194 10.0968 90.6376 16.8875 89.6116 23.7578C88.552 30.8459 86.444 42.506 82.4065 57.8682C78.7841 71.651 70.0915 81.8445 62.2268 88.6348C54.361 95.4258 47.2424 98.8826 46.6067 99.1846L45.4416 99.7383L44.8909 100L43.175 99.1836C42.5428 98.8833 35.4212 95.4271 27.553 88.6338C19.6884 81.8436 10.9975 71.6496 7.37523 57.8672C7.0151 56.4973 6.67282 55.1572 6.343 53.8477C6.82049 53.852 7.30704 53.8054 7.79613 53.7012L11.6174 52.8867C12.5147 52.6953 13.3361 52.3253 14.05 51.8213C14.3801 53.1347 14.7227 54.4797 15.0842 55.8555C17.8256 66.286 24.141 74.4978 30.4534 80.4658C36.2943 85.988 42.0835 89.5368 44.886 91.1016C47.6868 89.5327 53.4822 85.9725 59.3284 80.4434C65.6449 74.4692 71.9612 66.2596 74.6955 55.8555C78.6469 40.8227 80.7016 29.4601 81.7287 22.5889C82.2325 19.2191 80.4036 15.8734 77.2825 14.4648C70.7079 11.4993 59.7272 7.94045 44.8909 7.94043C30.0545 7.94047 19.0738 11.4992 12.4993 14.4648C9.37814 15.8733 7.54925 19.2186 8.05296 22.5889C8.44885 25.2362 8.99885 28.5523 9.74925 32.4863C8.18027 32.8722 6.32227 33.68 4.65062 34.9619C3.92202 35.5207 3.18602 36.2065 2.51878 37.0254C1.42971 31.6152 0.677345 27.1592 0.169172 23.7578C-0.856744 16.8874 2.86113 10.0966 9.21214 7.23145C16.5469 3.9226 28.6686 0 44.8909 0Z" fill="#008200"></path>
<path d="M64.7658 58.1163C64.765 58.1188 58.4887 78.4217 44.8908 88.3135C44.8908 88.3135 36.6965 82.8036 29.8791 73.9327L64.7658 58.1163Z" fill="#4817CE"></path>
<path d="M28.502 72.1155C28.502 72.1155 15.6005 57.2484 22.2255 49.7862C28.051 43.2242 76.098 35.2084 76.098 35.2084C74.7615 45.7944 40.183 66.9669 28.502 72.1155Z" fill="#4817CE"></path>
<path d="M41.3596 16.2921C47.5461 16.2921 52.5619 21.2841 52.562 27.4422C52.5618 33.6002 47.546 38.5923 41.3596 38.5923C35.1734 38.5921 30.1584 33.6001 30.1582 27.4422C30.1583 21.2842 35.1733 16.2922 41.3596 16.2921Z" fill="#4817CE"></path>
<path fill-rule="evenodd" clip-rule="evenodd" d="M27.3299 33.2903C28.1858 35.3253 29.4753 37.1331 31.0819 38.6018L15.0614 40.5657C14.4733 40.685 14.2536 40.8824 14.1805 40.9632C14.096 41.0568 14.0568 41.1643 14.0458 41.2708C13.8672 43.003 13.8374 45.089 13.8426 46.4231L13.8309 46.7405C13.6988 48.3087 12.5522 49.6229 10.9891 49.9563L7.16978 50.7708C5.05523 51.2211 3.03253 49.732 2.82212 47.6096L2.80747 47.4016C2.75174 46.0768 2.77117 44.1878 3.16196 42.3821C3.65582 40.1016 5.03442 38.4456 6.47837 37.3382C7.90606 36.2433 9.50773 35.5939 10.7303 35.3362L10.8202 35.3167L11.7547 35.2083L27.3299 33.2903ZM73.8661 26.9993C75.6701 26.7322 76.7706 28.1601 77.0047 29.386L77.0399 29.6272L77.0536 29.8645C77.0707 31.0715 76.3538 32.6278 74.6493 32.8811L53.9022 36.0042C55.1885 34.1385 56.0661 31.9715 56.4061 29.6292L73.8612 27.0003L73.8661 26.9993Z" fill="#4817CE"></path>
</svg>